<?xml version="1.0" encoding="UTF-8"?>
<svg xmlns="http://www.w3.org/2000/svg"
     viewBox="0 0 1200 1570"
     width="2400" height="3140"
     font-family="sans-serif">
  <defs>
    <marker id="ab" markerWidth="9" markerHeight="7" refX="8" refY="3.5" orient="auto">
      <polygon points="0 0,9 3.5,0 7" fill="#3b82f6"/>
    </marker>
    <marker id="ag" markerWidth="9" markerHeight="7" refX="8" refY="3.5" orient="auto">
      <polygon points="0 0,9 3.5,0 7" fill="#9ca3af"/>
    </marker>
    <marker id="ad" markerWidth="9" markerHeight="7" refX="8" refY="3.5" orient="auto">
      <polygon points="0 0,9 3.5,0 7" fill="#475569"/>
    </marker>
  </defs>

  <rect width="1200" height="1570" fill="#ffffff"/>

  <!-- Title -->
  <text x="600" y="30" text-anchor="middle" font-size="20" font-weight="700" fill="#1e293b">多轮对话 RAG + ReAct Agent 系统架构</text>
  <line x1="24" y1="42" x2="1176" y2="42" stroke="#e2e8f0" stroke-width="1"/>

  <!-- ══ G1: 请求入口 y=50 h=80 ══ -->
  <rect x="24" y="50" width="1152" height="80" rx="8" fill="#ede9fe"/>
  <text x="40" y="68" font-size="11" font-weight="600" fill="#7c3aed">请求入口层</text>
  <rect x="40" y="72" width="200" height="50" rx="6" fill="#fff" stroke="#3b82f6" stroke-width="1.5"/>
  <text x="140" y="93" text-anchor="middle" font-size="13" font-weight="600" fill="#1e293b">用户输入</text>
  <text x="140" y="109" text-anchor="middle" font-size="10" fill="#64748b">FastAPI :8000 · SSE / JSON</text>
  <line x1="240" y1="97" x2="256" y2="97" stroke="#3b82f6" stroke-width="1.5" marker-end="url(#ab)"/>
  <rect x="258" y="72" width="280" height="50" rx="6" fill="#fff" stroke="#3b82f6" stroke-width="1.5"/>
  <text x="398" y="93" text-anchor="middle" font-size="13" font-weight="600" fill="#1e293b">速率限制</text>
  <text x="398" y="109" text-anchor="middle" font-size="10" fill="#64748b">全局 5/s · 用户 20/s · query 3/s · Redis</text>
  <line x1="538" y1="97" x2="554" y2="97" stroke="#3b82f6" stroke-width="1.5" marker-end="url(#ab)"/>
  <rect x="556" y="72" width="604" height="50" rx="6" fill="#fff" stroke="#3b82f6" stroke-width="1.5"/>
  <text x="858" y="93" text-anchor="middle" font-size="13" font-weight="600" fill="#1e293b">熔断器</text>
  <text x="858" y="109" text-anchor="middle" font-size="10" fill="#64748b">50% 失败率触发断路 30s · 指数退避重试 · 半开自动恢复</text>
  <line x1="600" y1="130" x2="600" y2="146" stroke="#3b82f6" stroke-width="1.5" marker-end="url(#ab)"/>

  <!-- ══ G2: 查询前处理 y=146 h=106 ══ -->
  <rect x="24" y="146" width="1152" height="106" rx="8" fill="#f0f4ff"/>
  <text x="40" y="164" font-size="11" font-weight="600" fill="#3730a3">查询前处理层</text>
  <rect x="40" y="168" width="1120" height="78" rx="6" fill="#fff" stroke="#6366f1" stroke-width="1.5"/>
  <text x="600" y="191" text-anchor="middle" font-size="13" font-weight="600" fill="#1e293b">查询改写 + 意图分类</text>
  <text x="600" y="208" text-anchor="middle" font-size="10" fill="#4f46e5">qwen3-4B AWQ · vLLM :8001 · 规则预过滤：18个关键词直接判 direct（问候 / 身份 / 计算），跳过模型调用</text>
  <text x="600" y="226" text-anchor="middle" font-size="11" fill="#334155">一次推理搭便车 → 输出三字段：en_query（英文改写）· zh_query（中文改写）· intent（local / web_search / direct）</text>
  <line x1="600" y1="252" x2="600" y2="268" stroke="#3b82f6" stroke-width="1.5" marker-end="url(#ab)"/>

  <!-- ══ G3: 高频查询缓存 y=268 h=78 ══ -->
  <rect x="24" y="268" width="1152" height="78" rx="8" fill="#fffbeb"/>
  <text x="40" y="286" font-size="11" font-weight="600" fill="#b45309">高频查询缓存</text>
  <rect x="40" y="290" width="1120" height="50" rx="6" fill="#fff" stroke="#f59e0b" stroke-width="1.5"/>
  <text x="370" y="311" text-anchor="middle" font-size="13" font-weight="600" fill="#1e293b">高频查询缓存</text>
  <text x="370" y="330" text-anchor="middle" font-size="10" fill="#92400e">Bloom Filter + Redis · 阈值 5次/30min · 互斥锁防缓存击穿</text>
  <line x1="740" y1="296" x2="740" y2="334" stroke="#fde68a" stroke-width="1"/>
  <text x="930" y="311" text-anchor="middle" font-size="12" font-weight="600" fill="#d97706">Cache HIT →</text>
  <text x="930" y="330" text-anchor="middle" font-size="10" fill="#92400e">直接返回，跳过 LLM / 检索 / Agent</text>
  <!-- Cache HIT bypass: right edge → right margin → down → response right -->
  <path d="M 1160,315 L 1184,315 L 1184,962 L 810,962"
        stroke="#475569" stroke-width="1.8" fill="none"
        stroke-dasharray="6,3" marker-end="url(#ad)"/>
  <line x1="600" y1="346" x2="600" y2="362" stroke="#3b82f6" stroke-width="1.5" marker-end="url(#ab)"/>
  <text x="610" y="357" font-size="9" fill="#9ca3af" font-style="italic">Cache MISS</text>

  <!-- ══ G4: 记忆层 y=362 h=108 ══ -->
  <rect x="24" y="362" width="1152" height="108" rx="8" fill="#f0fdf4"/>
  <text x="40" y="380" font-size="11" font-weight="600" fill="#15803d">记忆层（并发加载）</text>
  <rect x="40" y="384" width="548" height="78" rx="6" fill="#fff" stroke="#22c55e" stroke-width="1.5"/>
  <text x="314" y="407" text-anchor="middle" font-size="13" font-weight="600" fill="#1e293b">短期记忆</text>
  <text x="314" y="424" text-anchor="middle" font-size="10" fill="#15803d">Redis Hash + Sorted Set</text>
  <text x="314" y="441" text-anchor="middle" font-size="11" fill="#334155">最近 5 轮对话 · 24h TTL · 注入 Agent system prompt</text>
  <rect x="604" y="384" width="556" height="78" rx="6" fill="#fff" stroke="#22c55e" stroke-width="1.5"/>
  <text x="882" y="407" text-anchor="middle" font-size="13" font-weight="600" fill="#1e293b">长期记忆（pgvector）</text>
  <text x="882" y="424" text-anchor="middle" font-size="10" fill="#15803d">PostgreSQL + pgvector 768维 · 四维评分检索 top-3</text>
  <text x="882" y="441" text-anchor="middle" font-size="11" fill="#334155">similarity(0.5) · importance(0.2) · recency(0.2) · frequency(0.1) · 事实 / 偏好 / 情节</text>
  <line x1="600" y1="470" x2="600" y2="486" stroke="#3b82f6" stroke-width="1.5" marker-end="url(#ab)"/>

  <!-- ══ G5: 意图路由 y=486 h=74 ══ -->
  <rect x="24" y="486" width="1152" height="74" rx="8" fill="#fff7ed"/>
  <text x="40" y="504" font-size="11" font-weight="600" fill="#c2410c">意图路由</text>
  <rect x="350" y="506" width="440" height="48" rx="6" fill="#fed7aa" stroke="#ea580c" stroke-width="2"/>
  <text x="570" y="527" text-anchor="middle" font-size="13" font-weight="700" fill="#7c2d12">意图路由器</text>
  <text x="430" y="546" text-anchor="middle" font-size="11" fill="#9a3412">▸ direct</text>
  <text x="570" y="546" text-anchor="middle" font-size="11" fill="#9a3412">▸ local</text>
  <text x="710" y="546" text-anchor="middle" font-size="11" fill="#9a3412">▸ web_search</text>

  <!-- ↓ Router → Context injection box -->
  <line x1="600" y1="554" x2="600" y2="578" stroke="#9ca3af" stroke-width="1.5" marker-end="url(#ag)"/>

  <!-- ══ LLM 初始上下文注入（居中小框）y=578 ══ -->
  <rect x="400" y="578" width="400" height="42" rx="6"
        fill="#fff" stroke="#64748b" stroke-width="1.5" stroke-dasharray="4,2"/>
  <text x="600" y="596" text-anchor="middle" font-size="12" font-weight="600" fill="#1e293b">LLM 初始上下文注入</text>
  <text x="600" y="612" text-anchor="middle" font-size="10" fill="#64748b">短/长期记忆 + intent_rule → 动态组装 system prompt</text>


  <!-- 3 thick diagonal arrows: context injection → execution paths -->
  <line x1="600" y1="620" x2="200" y2="656" stroke="#3b82f6" stroke-width="2.2" marker-end="url(#ab)"/>
  <line x1="600" y1="620" x2="572" y2="656" stroke="#3b82f6" stroke-width="2.2" marker-end="url(#ab)"/>
  <line x1="600" y1="620" x2="972" y2="656" stroke="#3b82f6" stroke-width="2.2" marker-end="url(#ab)"/>

  <!-- ══ G6: 执行路径 y=636 h=140 ══ -->
  <rect x="24" y="636" width="1152" height="140" rx="8" fill="#f8fafc"/>
  <text x="40" y="654" font-size="11" font-weight="600" fill="#475569">执行路径</text>
  <!-- Direct: x=40 w=316 y=658 h=110 -->
  <rect x="40" y="658" width="316" height="110" rx="6" fill="#fff" stroke="#94a3b8" stroke-width="1.5"/>
  <rect x="40" y="658" width="316" height="4" rx="2" fill="#f59e0b"/>
  <text x="198" y="679" text-anchor="middle" font-size="13" font-weight="600" fill="#1e293b">直接回答</text>
  <text x="198" y="695" text-anchor="middle" font-size="10" fill="#64748b">Direct Chain · 无工具调用</text>
  <text x="198" y="711" text-anchor="middle" font-size="11" fill="#334155">qwen3-30b-a3b（阿里百炼）</text>
  <text x="198" y="727" text-anchor="middle" font-size="11" fill="#334155">已注入短期记忆 + system prompt</text>
  <text x="198" y="743" text-anchor="middle" font-size="11" fill="#334155">跳过 ReAct 循环，直接返回</text>
  <text x="198" y="759" text-anchor="middle" font-size="10" fill="#94a3b8">问候 / 身份 / 基础计算</text>
  <!-- Direct bypass: left edge → left margin → down → response left -->
  <path d="M 40,713 L 16,713 L 16,962 L 330,962"
        stroke="#475569" stroke-width="1.8" fill="none"
        stroke-dasharray="6,3" marker-end="url(#ad)"/>
  <!-- Local: x=372 w=400 y=658 h=110 -->
  <rect x="372" y="658" width="400" height="110" rx="6" fill="#fff" stroke="#94a3b8" stroke-width="1.5"/>
  <rect x="372" y="658" width="400" height="4" rx="2" fill="#6366f1"/>
  <text x="572" y="679" text-anchor="middle" font-size="13" font-weight="600" fill="#1e293b">ReAct Agent（local）</text>
  <text x="572" y="695" text-anchor="middle" font-size="10" fill="#4f46e5">LangGraph · qwen3-30b-a3b · enable_thinking</text>
  <text x="572" y="711" text-anchor="middle" font-size="11" fill="#334155">短/长期记忆 + intent_rule → system prompt</text>
  <text x="572" y="727" text-anchor="middle" font-size="11" fill="#334155">最多 5 步推理 · 仅 knowledge_retriever</text>
  <text x="572" y="743" text-anchor="middle" font-size="11" fill="#334155">en_query 固定传入，禁止 Agent 自译</text>
  <text x="572" y="759" text-anchor="middle" font-size="10" fill="#94a3b8">web_search 禁用</text>
  <!-- Web: x=788 w=372 y=658 h=110 -->
  <rect x="788" y="658" width="372" height="110" rx="6" fill="#fff" stroke="#94a3b8" stroke-width="1.5"/>
  <rect x="788" y="658" width="372" height="4" rx="2" fill="#ef4444"/>
  <text x="974" y="679" text-anchor="middle" font-size="13" font-weight="600" fill="#1e293b">ReAct Agent（web_search）</text>
  <text x="974" y="695" text-anchor="middle" font-size="10" fill="#dc2626">LangGraph · qwen3-30b-a3b · enable_thinking</text>
  <text x="974" y="711" text-anchor="middle" font-size="11" fill="#334155">短/长期记忆 + intent_rule → system prompt</text>
  <text x="974" y="727" text-anchor="middle" font-size="11" fill="#334155">强制双路：knowledge_retriever 必须先调用</text>
  <text x="974" y="743" text-anchor="middle" font-size="11" fill="#334155">web_search 强制后续触发</text>
  <text x="974" y="759" text-anchor="middle" font-size="10" fill="#94a3b8">流式推送搜索词 + 来源 URL</text>
  <!-- tool_call arrows -->
  <line x1="572" y1="776" x2="572" y2="792" stroke="#3b82f6" stroke-width="1.5" marker-end="url(#ab)"/>
  <line x1="974" y1="776" x2="974" y2="792" stroke="#3b82f6" stroke-width="1.2" marker-end="url(#ab)"/>
  <text x="582" y="787" font-size="9" fill="#94a3b8" font-style="italic">tool_call</text>

  <!-- ══ G7: 工具层 y=792 h=130 ══ -->
  <rect x="24" y="792" width="1152" height="130" rx="8" fill="#eff6ff"/>
  <text x="40" y="810" font-size="11" font-weight="600" fill="#1d4ed8">工具层（LangChain StructuredTool · ReAct 路径专用）</text>
  <rect x="40" y="816" width="268" height="98" rx="6" fill="#fff" stroke="#3b82f6" stroke-width="1.5"/>
  <text x="174" y="837" text-anchor="middle" font-size="12" font-weight="600" fill="#1e293b">knowledge_retriever</text>
  <text x="174" y="853" text-anchor="middle" font-size="10" fill="#1d4ed8">Milvus + BM25 + RRF(k=60)</text>
  <text x="174" y="869" text-anchor="middle" font-size="10.5" fill="#334155">BGE Reranker v2 精排</text>
  <text x="174" y="884" text-anchor="middle" font-size="9.5" fill="#64748b">ONNX INT8 CPU · nomic-embed</text>
  <text x="174" y="899" text-anchor="middle" font-size="9.5" fill="#64748b">向量 top-10 + BM25 top-10 · 零 GPU</text>
  <rect x="324" y="816" width="268" height="98" rx="6" fill="#fff" stroke="#3b82f6" stroke-width="1.5"/>
  <text x="458" y="837" text-anchor="middle" font-size="12" font-weight="600" fill="#1e293b">relation_verifier</text>
  <text x="458" y="853" text-anchor="middle" font-size="10" fill="#1d4ed8">Neo4j · Cypher</text>
  <text x="458" y="869" text-anchor="middle" font-size="10.5" fill="#334155">实体关系查询验证</text>
  <text x="458" y="884" text-anchor="middle" font-size="9.5" fill="#64748b">confidence ≥ 0.5 过滤</text>
  <text x="458" y="899" text-anchor="middle" font-size="9.5" fill="#64748b">1329节点 · 345关系</text>
  <rect x="608" y="816" width="268" height="98" rx="6" fill="#fff" stroke="#3b82f6" stroke-width="1.5"/>
  <text x="742" y="837" text-anchor="middle" font-size="12" font-weight="600" fill="#1e293b">translator</text>
  <text x="742" y="853" text-anchor="middle" font-size="10" fill="#1d4ed8">MarianMT · ONNX CPU</text>
  <text x="742" y="869" text-anchor="middle" font-size="10.5" fill="#334155">encoder INT8 / decoder FP32</text>
  <text x="742" y="884" text-anchor="middle" font-size="9.5" fill="#64748b">KV Cache 贪婪解码 · 2线程</text>
  <text x="742" y="899" text-anchor="middle" font-size="9.5" fill="#64748b">opus-mt-en-zh</text>
  <rect x="892" y="816" width="268" height="98" rx="6" fill="#dbeafe" stroke="#3b82f6" stroke-width="1.5"/>
  <text x="1026" y="837" text-anchor="middle" font-size="12" font-weight="600" fill="#1e293b">web_search</text>
  <text x="1026" y="853" text-anchor="middle" font-size="10" fill="#1d4ed8">百度千帆 ai_search/web_summary</text>
  <text x="1026" y="869" text-anchor="middle" font-size="10.5" fill="#334155">摘要模式 · top_k=3 · 300字截断</text>
  <text x="1026" y="884" text-anchor="middle" font-size="9.5" fill="#64748b">web_search 意图强制触发</text>
  <text x="1026" y="899" text-anchor="middle" font-size="9.5" fill="#64748b">流式推送 query词 + 来源 URL</text>
  <line x1="600" y1="922" x2="600" y2="936" stroke="#3b82f6" stroke-width="1.5" marker-end="url(#ab)"/>
  <text x="610" y="932" font-size="9" fill="#94a3b8" font-style="italic">ranked docs</text>

  <!-- 响应输出 y=936 h=52 -->
  <rect x="330" y="936" width="480" height="52" rx="6" fill="#dbeafe" stroke="#2563eb" stroke-width="2"/>
  <text x="570" y="960" text-anchor="middle" font-size="14" font-weight="700" fill="#1e3a8a">响应输出</text>
  <text x="570" y="978" text-anchor="middle" font-size="10" fill="#1d4ed8">SSE 流式 token · JSON · FastAPI :8000</text>
  <line x1="600" y1="988" x2="600" y2="1004" stroke="#9ca3af" stroke-width="1.5" stroke-dasharray="5,3" marker-end="url(#ag)"/>
  <text x="610" y="999" font-size="9" fill="#9ca3af" font-style="italic">async</text>

  <!-- ══ G8: 后台异步任务 y=1004 h=116 ══ -->
  <rect x="24" y="1004" width="1152" height="116" rx="8" fill="#fafafa" stroke="#e5e7eb" stroke-width="1"/>
  <text x="40" y="1022" font-size="11" font-weight="600" fill="#64748b">后台异步任务（asyncio.create_task，不阻塞响应）</text>
  <rect x="40" y="1028" width="268" height="86" rx="6" fill="#fff" stroke="#22c55e" stroke-width="1.5"/>
  <text x="174" y="1047" text-anchor="middle" font-size="12" font-weight="600" fill="#1e293b">长期记忆写入</text>
  <text x="174" y="1062" text-anchor="middle" font-size="9.5" fill="#15803d">asyncio · 不阻塞响应</text>
  <text x="174" y="1077" text-anchor="middle" font-size="10" fill="#334155">① qwen3-1.7B 提取关键信息</text>
  <text x="174" y="1091" text-anchor="middle" font-size="10" fill="#334155">② qwen3-4B 增删改查决策</text>
  <text x="174" y="1106" text-anchor="middle" font-size="9.5" fill="#64748b">写入 PostgreSQL + pgvector</text>
  <rect x="324" y="1028" width="268" height="86" rx="6" fill="#fff" stroke="#22c55e" stroke-width="1.5"/>
  <text x="458" y="1047" text-anchor="middle" font-size="12" font-weight="600" fill="#1e293b">RAGAS 在线评估</text>
  <text x="458" y="1062" text-anchor="middle" font-size="9.5" fill="#15803d">15% 流量采样</text>
  <text x="458" y="1077" text-anchor="middle" font-size="10" fill="#334155">context_precision · faithfulness</text>
  <text x="458" y="1091" text-anchor="middle" font-size="10" fill="#334155">answer_relevancy</text>
  <text x="458" y="1106" text-anchor="middle" font-size="9.5" fill="#64748b">judge: qwen-max · 结果→Langfuse</text>
  <rect x="608" y="1028" width="268" height="86" rx="6" fill="#fff" stroke="#22c55e" stroke-width="1.5"/>
  <text x="742" y="1047" text-anchor="middle" font-size="12" font-weight="600" fill="#1e293b">高频缓存更新</text>
  <text x="742" y="1062" text-anchor="middle" font-size="9.5" fill="#15803d">asyncio · 不阻塞响应</text>
  <text x="742" y="1077" text-anchor="middle" font-size="10" fill="#334155">query 命中计数 +1</text>
  <text x="742" y="1091" text-anchor="middle" font-size="10" fill="#334155">超阈值自动写入缓存</text>
  <text x="742" y="1106" text-anchor="middle" font-size="9.5" fill="#64748b">Bloom Filter + Redis 更新</text>
  <rect x="892" y="1028" width="268" height="86" rx="6" fill="#fff" stroke="#22c55e" stroke-width="1.5"/>
  <text x="1026" y="1047" text-anchor="middle" font-size="12" font-weight="600" fill="#1e293b">PG 对话历史写入</text>
  <text x="1026" y="1062" text-anchor="middle" font-size="9.5" fill="#15803d">asyncio · 不阻塞响应</text>
  <text x="1026" y="1077" text-anchor="middle" font-size="10" fill="#334155">全量对话写入 PostgreSQL</text>
  <text x="1026" y="1091" text-anchor="middle" font-size="10" fill="#334155">日期分区表 · asyncpg 池</text>
  <text x="1026" y="1106" text-anchor="middle" font-size="9.5" fill="#64748b">指数退避重试</text>

  <!-- ══ G9: Langfuse y=1136 h=110 ══ -->
  <rect x="24" y="1136" width="1152" height="110" rx="8" fill="#fefce8" stroke="#ca8a04" stroke-width="1"/>
  <text x="40" y="1154" font-size="11" font-weight="600" fill="#a16207">可观测性</text>
  <rect x="40" y="1160" width="1120" height="80" rx="6" fill="#fff" stroke="#ca8a04" stroke-width="1.5"/>
  <text x="600" y="1182" text-anchor="middle" font-size="13" font-weight="600" fill="#1e293b">Langfuse v3（自托管）</text>
  <text x="600" y="1199" text-anchor="middle" font-size="10" fill="#a16207">全链路 Trace · CallbackHandler · intent 标签（可按意图过滤分析）</text>
  <text x="210" y="1217" text-anchor="middle" font-size="11" fill="#334155">各阶段延迟监控</text>
  <text x="460" y="1217" text-anchor="middle" font-size="11" fill="#334155">工具调用统计</text>
  <text x="730" y="1217" text-anchor="middle" font-size="11" fill="#334155">参数质量评分（零 LLM）</text>
  <text x="990" y="1217" text-anchor="middle" font-size="11" fill="#334155">RAGAS 三指标注入</text>
  <text x="600" y="1232" text-anchor="middle" font-size="10" fill="#78716c">knowledge_retriever query 规则评分 · 每次写入 Langfuse score</text>

  <!-- Separator -->
  <line x1="24" y1="1258" x2="1176" y2="1258" stroke="#e2e8f0" stroke-width="1" stroke-dasharray="8,4"/>
  <text x="600" y="1274" text-anchor="middle" font-size="11" fill="#94a3b8" font-style="italic">— 以下为离线 / 定期任务，不在实时请求链路中 —</text>

  <!-- ══ G10: 离线任务 y=1282 h=258 ══ -->
  <rect x="24" y="1282" width="1152" height="258" rx="8" fill="#f8fafc" stroke="#cbd5e1" stroke-width="1" stroke-dasharray="6,3"/>
  <text x="40" y="1300" font-size="11" font-weight="600" fill="#475569">离线 / 定期任务</text>

  <!-- RAGAS离线 x=40 w=358 y=1306 h=226 -->
  <rect x="40" y="1306" width="358" height="226" rx="6" fill="#fff" stroke="#6366f1" stroke-width="1.5"/>
  <rect x="40" y="1306" width="358" height="4" rx="2" fill="#6366f1"/>
  <text x="219" y="1328" text-anchor="middle" font-size="13" font-weight="600" fill="#1e293b">RAGAS 离线评估</text>
  <text x="219" y="1344" text-anchor="middle" font-size="10" fill="#4f46e5">手动触发 · 独立评估脚本</text>
  <text x="219" y="1363" text-anchor="middle" font-size="11" font-weight="600" fill="#334155">── 数据集 ──</text>
  <text x="219" y="1379" text-anchor="middle" font-size="10.5" fill="#334155">30-80条 · LLM 生成</text>
  <text x="219" y="1395" text-anchor="middle" font-size="10.5" fill="#334155">{ question, ground_truth, contexts }</text>
  <text x="219" y="1411" text-anchor="middle" font-size="10.5" fill="#334155">难度分层：easy / medium / hard</text>
  <text x="219" y="1430" text-anchor="middle" font-size="11" font-weight="600" fill="#334155">── 评估指标 ──</text>
  <text x="219" y="1446" text-anchor="middle" font-size="10.5" fill="#334155">context_precision · faithfulness</text>
  <text x="219" y="1462" text-anchor="middle" font-size="10.5" fill="#334155">answer_relevancy · answer_correctness</text>
  <text x="219" y="1478" text-anchor="middle" font-size="10.5" fill="#334155">judge LLM: qwen-max</text>
  <text x="219" y="1497" text-anchor="middle" font-size="10.5" font-weight="600" fill="#334155">── 输出 ──</text>
  <text x="219" y="1513" text-anchor="middle" font-size="10" fill="#64748b">数字基准（如 context_precision=0.82）</text>
  <text x="219" y="1526" text-anchor="middle" font-size="10" fill="#64748b">验证检索与生成质量</text>

  <!-- 长期记忆反思 x=414 w=372 y=1306 h=226 -->
  <rect x="414" y="1306" width="372" height="226" rx="6" fill="#fff" stroke="#f59e0b" stroke-width="1.5"/>
  <rect x="414" y="1306" width="372" height="4" rx="2" fill="#f59e0b"/>
  <text x="600" y="1328" text-anchor="middle" font-size="13" font-weight="600" fill="#1e293b">长期记忆反思</text>
  <text x="600" y="1344" text-anchor="middle" font-size="10" fill="#b45309">定期触发 · reflection_task.py</text>
  <text x="600" y="1363" text-anchor="middle" font-size="11" font-weight="600" fill="#334155">── 触发条件（满足其一）──</text>
  <text x="600" y="1379" text-anchor="middle" font-size="10.5" fill="#334155">① 新增记忆 ≥ 20 条</text>
  <text x="600" y="1395" text-anchor="middle" font-size="10.5" fill="#334155">② 距上次反思 ≥ 7 天</text>
  <text x="600" y="1414" text-anchor="middle" font-size="11" font-weight="600" fill="#334155">── 执行逻辑 ──</text>
  <text x="600" y="1430" text-anchor="middle" font-size="10.5" fill="#334155">取高 importance 记忆</text>
  <text x="600" y="1446" text-anchor="middle" font-size="10.5" fill="#334155">qwen3-4B 摘要提炼</text>
  <text x="600" y="1462" text-anchor="middle" font-size="10.5" fill="#334155">生成更高层次的抽象记忆</text>
  <text x="600" y="1478" text-anchor="middle" font-size="10.5" fill="#334155">写回 pgvector，importance 提升</text>
  <text x="600" y="1497" text-anchor="middle" font-size="11" font-weight="600" fill="#334155">── 目的 ──</text>
  <text x="600" y="1513" text-anchor="middle" font-size="10" fill="#64748b">防止记忆碎片化</text>
  <text x="600" y="1526" text-anchor="middle" font-size="10" fill="#64748b">提炼用户偏好与知识模型</text>

  <!-- 长期记忆遗忘 x=802 w=358 y=1306 h=226 -->
  <rect x="802" y="1306" width="358" height="226" rx="6" fill="#fff" stroke="#ef4444" stroke-width="1.5"/>
  <rect x="802" y="1306" width="358" height="4" rx="2" fill="#ef4444"/>
  <text x="981" y="1328" text-anchor="middle" font-size="13" font-weight="600" fill="#1e293b">长期记忆遗忘</text>
  <text x="981" y="1344" text-anchor="middle" font-size="10" fill="#dc2626">定期触发 · forgetting_task.py</text>
  <text x="981" y="1363" text-anchor="middle" font-size="11" font-weight="600" fill="#334155">── 遗忘公式 ──</text>
  <text x="981" y="1379" text-anchor="middle" font-size="10.5" fill="#334155">score × e^(−λ × Δt)</text>
  <text x="981" y="1395" text-anchor="middle" font-size="10.5" fill="#334155">情节记忆 λ=0.03（快速衰减）</text>
  <text x="981" y="1411" text-anchor="middle" font-size="10.5" fill="#334155">事实 / 偏好 λ=0.01（缓慢衰减）</text>
  <text x="981" y="1430" text-anchor="middle" font-size="11" font-weight="600" fill="#334155">── 容量控制 ──</text>
  <text x="981" y="1446" text-anchor="middle" font-size="10.5" fill="#334155">上限 500 条 / 用户</text>
  <text x="981" y="1462" text-anchor="middle" font-size="10.5" fill="#334155">超出删除得分最低记忆</text>
  <text x="981" y="1478" text-anchor="middle" font-size="10.5" fill="#334155">importance ≥ 0.8 受保护不删除</text>
  <text x="981" y="1497" text-anchor="middle" font-size="11" font-weight="600" fill="#334155">── 目的 ──</text>
  <text x="981" y="1513" text-anchor="middle" font-size="10" fill="#64748b">防止长期记忆无限膨胀</text>
  <text x="981" y="1526" text-anchor="middle" font-size="10" fill="#64748b">保持检索质量，减少噪声干扰</text>

  <!-- Footer -->
  <line x1="24" y1="1546" x2="1176" y2="1546" stroke="#e5e7eb" stroke-width="1"/>
  <rect x="40" y="1552" width="148" height="16" rx="4" fill="#f1f5f9"/>
  <text x="114" y="1563" text-anchor="middle" font-size="10" fill="#475569">PostgreSQL + pgvector</text>
  <rect x="196" y="1552" width="66" height="16" rx="4" fill="#f1f5f9"/>
  <text x="229" y="1563" text-anchor="middle" font-size="10" fill="#475569">Milvus</text>
  <rect x="270" y="1552" width="58" height="16" rx="4" fill="#f1f5f9"/>
  <text x="299" y="1563" text-anchor="middle" font-size="10" fill="#475569">Neo4j</text>
  <rect x="336" y="1552" width="52" height="16" rx="4" fill="#f1f5f9"/>
  <text x="362" y="1563" text-anchor="middle" font-size="10" fill="#475569">Redis</text>
  <text x="870" y="1563" text-anchor="middle" font-size="10" fill="#9ca3af">GPU: 阿里云 A10 24GB · vLLM: qwen3-4B AWQ :8001 / qwen3-1.7B :8002 · 云API: qwen3-30b-a3b / qwen-max</text>
</svg>
